<svg id="Layer_1" data-name="Layer 1" xmlns="http://www.w3.org/2000/svg" viewBox="0 0 128 128"><defs><style>.cls-1{fill:#e03f3f;}.cls-2{fill:#f7f7f7;}</style></defs><title>game-editor</title><rect class="cls-1" x="4.5" y="31.5" width="120" height="65"/><path d="M124,32V96H5V32H124m1-1H4V97H125V31Z"/><path class="cls-2" d="M18.46,50.21h6.3v8.6a18.25,18.25,0,0,1-3,.71,21,21,0,0,1-3.08.21,7.73,7.73,0,0,1-6-2.3,9.27,9.27,0,0,1-2.11-6.5A8.66,8.66,0,0,1,13,44.46a8.94,8.94,0,0,1,6.55-2.34,12.76,12.76,0,0,1,5.09,1l-1,2.33a9.9,9.9,0,0,0-4.17-1,5.62,5.62,0,0,0-4.34,1.72A6.67,6.67,0,0,0,13.54,51,7,7,0,0,0,15,55.73a5.2,5.2,0,0,0,4.13,1.63A13.58,13.58,0,0,0,22,57V52.61H18.46Z"/><path class="cls-2" d="M36.69,59.5l-.55-1.8H36a5.31,5.31,0,0,1-1.89,1.61,6,6,0,0,1-2.44.43,4.13,4.13,0,0,1-3-1,3.86,3.86,0,0,1-1.07-2.92,3.43,3.43,0,0,1,1.49-3,8.58,8.58,0,0,1,4.54-1.11l2.24-.07v-.69A2.62,2.62,0,0,0,35.35,49a2.37,2.37,0,0,0-1.8-.62,6.22,6.22,0,0,0-1.91.29,14.41,14.41,0,0,0-1.76.69l-.89-2a9.58,9.58,0,0,1,2.31-.84,10.62,10.62,0,0,1,2.37-.29,5.61,5.61,0,0,1,3.73,1.08,4.22,4.22,0,0,1,1.26,3.39V59.5Zm-4.1-1.87A3.41,3.41,0,0,0,35,56.79a3,3,0,0,0,.91-2.35V53.31l-1.66.07a5.69,5.69,0,0,0-2.83.65,2,2,0,0,0-.88,1.78A1.73,1.73,0,0,0,31,57.15,2.22,2.22,0,0,0,32.59,57.63Z"/><path class="cls-2" d="M53.43,59.5H50.66v-8a3.62,3.62,0,0,0-.56-2.22,2.08,2.08,0,0,0-1.76-.73,2.68,2.68,0,0,0-2.34,1A6.08,6.08,0,0,0,45.26,53V59.5H42.51v-13h2.16l.39,1.7h.14a3.59,3.59,0,0,1,1.56-1.43A5,5,0,0,1,49,46.3q3,0,4,2h.19a4,4,0,0,1,1.62-1.5,5.13,5.13,0,0,1,2.39-.54,4.35,4.35,0,0,1,3.38,1.17,5.19,5.19,0,0,1,1.06,3.57V59.5H58.85v-8a3.6,3.6,0,0,0-.57-2.22,2.09,2.09,0,0,0-1.76-.73,2.73,2.73,0,0,0-2.35,1,5.16,5.16,0,0,0-.74,3.08Z"/><path class="cls-2" d="M71.11,59.73A6.27,6.27,0,0,1,66.38,58a6.7,6.7,0,0,1-1.71-4.86,7.35,7.35,0,0,1,1.58-5,5.46,5.46,0,0,1,4.35-1.82,5.34,5.34,0,0,1,4.05,1.56,6,6,0,0,1,1.49,4.29v1.49H67.51a4.26,4.26,0,0,0,1,2.9,3.55,3.55,0,0,0,2.71,1,10,10,0,0,0,2.14-.22,11.21,11.21,0,0,0,2.13-.72v2.24a8.46,8.46,0,0,1-2,.68A12.5,12.5,0,0,1,71.11,59.73Zm-.5-11.34a2.77,2.77,0,0,0-2.1.83,4,4,0,0,0-.94,2.43h5.88a3.59,3.59,0,0,0-.77-2.43A2.65,2.65,0,0,0,70.61,48.39Z"/><path class="cls-2" d="M34.92,87.73A6.27,6.27,0,0,1,30.19,86a6.7,6.7,0,0,1-1.71-4.86,7.35,7.35,0,0,1,1.58-5,5.46,5.46,0,0,1,4.35-1.82,5.34,5.34,0,0,1,4.05,1.56A6,6,0,0,1,40,80.15v1.49H31.32a4.26,4.26,0,0,0,1,2.9,3.55,3.55,0,0,0,2.71,1,10,10,0,0,0,2.14-.22,11.21,11.21,0,0,0,2.13-.72v2.24a8.46,8.46,0,0,1-2,.68A12.5,12.5,0,0,1,34.92,87.73Zm-.5-11.34a2.77,2.77,0,0,0-2.1.83,4,4,0,0,0-.94,2.43h5.88a3.59,3.59,0,0,0-.77-2.43A2.65,2.65,0,0,0,34.42,76.39Z"/><path class="cls-2" d="M47.46,87.73A4.51,4.51,0,0,1,43.68,86,7.9,7.9,0,0,1,42.32,81a7.93,7.93,0,0,1,1.38-5,4.56,4.56,0,0,1,3.81-1.78,4.47,4.47,0,0,1,3.89,1.89h.14a16.51,16.51,0,0,1-.2-2.2V69.27h2.77V87.5H51.95l-.48-1.7h-.13A4.4,4.4,0,0,1,47.46,87.73Zm.74-2.23a3,3,0,0,0,2.47-1,5,5,0,0,0,.8-3.1v-.39a5.81,5.81,0,0,0-.8-3.48,3,3,0,0,0-2.5-1,2.53,2.53,0,0,0-2.24,1.18,6,6,0,0,0-.79,3.36,5.88,5.88,0,0,0,.76,3.29A2.57,2.57,0,0,0,48.2,85.51Z"/><path class="cls-2" d="M57.88,71.11a1.52,1.52,0,0,1,.4-1.14,1.58,1.58,0,0,1,1.15-.4,1.54,1.54,0,0,1,1.13.4,1.52,1.52,0,0,1,.4,1.14,1.5,1.5,0,0,1-.4,1.11,1.53,1.53,0,0,1-1.13.4,1.56,1.56,0,0,1-1.15-.4A1.5,1.5,0,0,1,57.88,71.11ZM60.8,87.5H58v-13H60.8Z"/><path class="cls-2" d="M69.56,85.51a6.7,6.7,0,0,0,2-.32v2.07a5.56,5.56,0,0,1-1.18.33,8.11,8.11,0,0,1-1.49.13Q65,87.73,65,83.61v-7H63.22V75.41l1.9-1,.94-2.74h1.7v2.88h3.69v2.09H67.76v6.94a2,2,0,0,0,.5,1.47A1.82,1.82,0,0,0,69.56,85.51Z"/><path class="cls-2" d="M85.66,81A7.07,7.07,0,0,1,84,86a5.84,5.84,0,0,1-4.54,1.78,6.21,6.21,0,0,1-3.21-.82,5.42,5.42,0,0,1-2.14-2.36A8,8,0,0,1,73.39,81,7,7,0,0,1,75,76.07a5.86,5.86,0,0,1,4.56-1.77A5.71,5.71,0,0,1,84,76.12,7,7,0,0,1,85.66,81Zm-9.43,0q0,4.49,3.32,4.49T82.83,81q0-4.44-3.3-4.44A2.82,2.82,0,0,0,77,77.7,5.84,5.84,0,0,0,76.23,81Z"/><path class="cls-2" d="M95.4,74.3a6.63,6.63,0,0,1,1.37.12L96.5,77a5.2,5.2,0,0,0-1.22-.14,3.53,3.53,0,0,0-2.68,1.08,3.9,3.9,0,0,0-1,2.8V87.5H88.83v-13H91l.36,2.29h.14A5.14,5.14,0,0,1,93.17,75,4,4,0,0,1,95.4,74.3Z"/></svg>