<svg id="Layer_1" data-name="Layer 1" xmlns="http://www.w3.org/2000/svg" viewBox="0 0 128 128"><defs><style>.cls-1{fill:#fff;}</style></defs><title>mainContentPagination-next</title><polygon class="cls-1" points="95.45 26.5 121.45 63.5 95.45 104.5 95.45 80.5 69.45 80.5 69.45 48.5 93.45 48.5 95.45 26.5"/><path d="M94.95,106.22l27.1-42.74-27-38.39L93,48h-24V81h26Zm25.9-42.71-24.9,39.26V80h-26V49h24l1.92-21.1Z"/><rect class="cls-1" x="20.45" y="35.5" width="43" height="10" rx="5" ry="5" transform="translate(83.9 81) rotate(180)"/><path d="M25.45,46h33a5.5,5.5,0,0,0,0-11h-33a5.5,5.5,0,0,0,0,11Zm33-10a4.5,4.5,0,0,1,0,9h-33a4.5,4.5,0,0,1,0-9Z"/><rect class="cls-1" x="13.45" y="52.5" width="50" height="7" rx="3.5" ry="3.5" transform="translate(76.9 112) rotate(180)"/><path d="M16.95,60h43a4,4,0,0,0,0-8h-43a4,4,0,0,0,0,8Zm43-7a3,3,0,0,1,0,6h-43a3,3,0,0,1,0-6Z"/><rect class="cls-1" x="33.45" y="65.5" width="27" height="10" rx="5" ry="5" transform="translate(93.9 141) rotate(-180)"/><path d="M38.45,76h17a5.5,5.5,0,0,0,0-11h-17a5.5,5.5,0,0,0,0,11Zm17-10a4.5,4.5,0,0,1,0,9h-17a4.5,4.5,0,0,1,0-9Z"/><rect class="cls-1" x="7.45" y="81.5" width="56" height="5" rx="2.5" ry="2.5" transform="translate(70.9 168) rotate(180)"/><path d="M9.95,87h51a3,3,0,0,0,0-6h-51a3,3,0,0,0,0,6Zm51-5a2,2,0,0,1,0,4h-51a2,2,0,0,1,0-4Z"/></svg>