<svg id="Layer_1" data-name="Layer 1" xmlns="http://www.w3.org/2000/svg" viewBox="0 0 128 128"><defs><style>.cls-1{fill:#fff;}</style></defs><title>mainButtonsPagination-prev</title><polygon class="cls-1" points="33.5 26.5 7.5 63.5 33.5 104.5 33.5 80.5 59.5 80.5 59.5 48.5 35.5 48.5 33.5 26.5"/><path d="M34,106.22,6.9,63.49l27-38.39L36,48H60V81H34ZM8.1,63.51,33,102.78V80H59V49H35L33.13,27.9Z"/><rect class="cls-1" x="65.15" y="46.32" width="12.95" height="6.36" rx="3.18" ry="3.18"/><path d="M76.6,53H66.66C65.74,53,65,51.43,65,49.5s.74-3.5,1.66-3.5H76.6c.91,0,1.66,1.57,1.66,3.5S77.51,53,76.6,53Zm-9.94-6.36c-.75,0-1.36,1.28-1.36,2.86s.61,2.86,1.36,2.86H76.6c.75,0,1.36-1.28,1.36-2.86s-.61-2.86-1.36-2.86Z"/><rect class="cls-1" x="79.73" y="46.32" width="12.95" height="6.36" rx="3.18" ry="3.18"/><path d="M91.18,53H81.24c-.91,0-1.66-1.57-1.66-3.5s.74-3.5,1.66-3.5h9.94c.91,0,1.66,1.57,1.66,3.5S92.09,53,91.18,53Zm-9.94-6.36c-.75,0-1.36,1.28-1.36,2.86s.61,2.86,1.36,2.86h9.94c.75,0,1.36-1.28,1.36-2.86s-.61-2.86-1.36-2.86Z"/><rect class="cls-1" x="94.31" y="46.32" width="12.95" height="6.36" rx="3.18" ry="3.18"/><path d="M105.76,53H95.82c-.91,0-1.66-1.57-1.66-3.5s.74-3.5,1.66-3.5h9.94c.91,0,1.66,1.57,1.66,3.5S106.68,53,105.76,53Zm-9.94-6.36c-.75,0-1.36,1.28-1.36,2.86s.61,2.86,1.36,2.86h9.94c.75,0,1.36-1.28,1.36-2.86s-.61-2.86-1.36-2.86Z"/><rect class="cls-1" x="108.89" y="46.32" width="12.95" height="6.36" rx="3.18" ry="3.18"/><path d="M120.34,53H110.4c-.91,0-1.66-1.57-1.66-3.5s.74-3.5,1.66-3.5h9.94c.91,0,1.66,1.57,1.66,3.5S121.26,53,120.34,53Zm-9.94-6.36c-.75,0-1.36,1.28-1.36,2.86s.61,2.86,1.36,2.86h9.94c.75,0,1.36-1.28,1.36-2.86s-.61-2.86-1.36-2.86Z"/><rect class="cls-1" x="65.15" y="56.32" width="12.95" height="6.36" rx="3.18" ry="3.18"/><path d="M76.6,63H66.66C65.74,63,65,61.43,65,59.5s.74-3.5,1.66-3.5H76.6c.91,0,1.66,1.57,1.66,3.5S77.51,63,76.6,63Zm-9.94-6.36c-.75,0-1.36,1.28-1.36,2.86s.61,2.86,1.36,2.86H76.6c.75,0,1.36-1.28,1.36-2.86s-.61-2.86-1.36-2.86Z"/><rect class="cls-1" x="79.73" y="56.32" width="12.95" height="6.36" rx="3.18" ry="3.18"/><path d="M91.18,63H81.24c-.91,0-1.66-1.57-1.66-3.5s.74-3.5,1.66-3.5h9.94c.91,0,1.66,1.57,1.66,3.5S92.09,63,91.18,63Zm-9.94-6.36c-.75,0-1.36,1.28-1.36,2.86s.61,2.86,1.36,2.86h9.94c.75,0,1.36-1.28,1.36-2.86s-.61-2.86-1.36-2.86Z"/><rect class="cls-1" x="94.31" y="56.32" width="12.95" height="6.36" rx="3.18" ry="3.18"/><path d="M105.76,63H95.82c-.91,0-1.66-1.57-1.66-3.5s.74-3.5,1.66-3.5h9.94c.91,0,1.66,1.57,1.66,3.5S106.68,63,105.76,63Zm-9.94-6.36c-.75,0-1.36,1.28-1.36,2.86s.61,2.86,1.36,2.86h9.94c.75,0,1.36-1.28,1.36-2.86s-.61-2.86-1.36-2.86Z"/><rect class="cls-1" x="108.89" y="56.32" width="12.95" height="6.36" rx="3.18" ry="3.18"/><path d="M120.34,63H110.4c-.91,0-1.66-1.57-1.66-3.5s.74-3.5,1.66-3.5h9.94c.91,0,1.66,1.57,1.66,3.5S121.26,63,120.34,63Zm-9.94-6.36c-.75,0-1.36,1.28-1.36,2.86s.61,2.86,1.36,2.86h9.94c.75,0,1.36-1.28,1.36-2.86s-.61-2.86-1.36-2.86Z"/><rect class="cls-1" x="65.15" y="66.32" width="12.95" height="6.36" rx="3.18" ry="3.18"/><path d="M76.6,73H66.66C65.74,73,65,71.43,65,69.5s.74-3.5,1.66-3.5H76.6c.91,0,1.66,1.57,1.66,3.5S77.51,73,76.6,73Zm-9.94-6.36c-.75,0-1.36,1.28-1.36,2.86s.61,2.86,1.36,2.86H76.6c.75,0,1.36-1.28,1.36-2.86s-.61-2.86-1.36-2.86Z"/><rect class="cls-1" x="79.73" y="66.32" width="12.95" height="6.36" rx="3.18" ry="3.18"/><path d="M91.18,73H81.24c-.91,0-1.66-1.57-1.66-3.5s.74-3.5,1.66-3.5h9.94c.91,0,1.66,1.57,1.66,3.5S92.09,73,91.18,73Zm-9.94-6.36c-.75,0-1.36,1.28-1.36,2.86s.61,2.86,1.36,2.86h9.94c.75,0,1.36-1.28,1.36-2.86s-.61-2.86-1.36-2.86Z"/><rect class="cls-1" x="94.31" y="66.32" width="12.95" height="6.36" rx="3.18" ry="3.18"/><path d="M105.76,73H95.82c-.91,0-1.66-1.57-1.66-3.5s.74-3.5,1.66-3.5h9.94c.91,0,1.66,1.57,1.66,3.5S106.68,73,105.76,73Zm-9.94-6.36c-.75,0-1.36,1.28-1.36,2.86s.61,2.86,1.36,2.86h9.94c.75,0,1.36-1.28,1.36-2.86s-.61-2.86-1.36-2.86Z"/><rect class="cls-1" x="108.89" y="66.32" width="12.95" height="6.36" rx="3.18" ry="3.18"/><path d="M120.34,73H110.4c-.91,0-1.66-1.57-1.66-3.5s.74-3.5,1.66-3.5h9.94c.91,0,1.66,1.57,1.66,3.5S121.26,73,120.34,73Zm-9.94-6.36c-.75,0-1.36,1.28-1.36,2.86s.61,2.86,1.36,2.86h9.94c.75,0,1.36-1.28,1.36-2.86s-.61-2.86-1.36-2.86Z"/><rect class="cls-1" x="65.15" y="76.32" width="12.95" height="6.36" rx="3.18" ry="3.18"/><path d="M76.6,83H66.66C65.74,83,65,81.43,65,79.5s.74-3.5,1.66-3.5H76.6c.91,0,1.66,1.57,1.66,3.5S77.51,83,76.6,83Zm-9.94-6.36c-.75,0-1.36,1.28-1.36,2.86s.61,2.86,1.36,2.86H76.6c.75,0,1.36-1.28,1.36-2.86s-.61-2.86-1.36-2.86Z"/><rect class="cls-1" x="79.73" y="76.32" width="12.95" height="6.36" rx="3.18" ry="3.18"/><path d="M91.18,83H81.24c-.91,0-1.66-1.57-1.66-3.5s.74-3.5,1.66-3.5h9.94c.91,0,1.66,1.57,1.66,3.5S92.09,83,91.18,83Zm-9.94-6.36c-.75,0-1.36,1.28-1.36,2.86s.61,2.86,1.36,2.86h9.94c.75,0,1.36-1.28,1.36-2.86s-.61-2.86-1.36-2.86Z"/><rect class="cls-1" x="94.31" y="76.32" width="12.95" height="6.36" rx="3.18" ry="3.18"/><path d="M105.76,83H95.82c-.91,0-1.66-1.57-1.66-3.5s.74-3.5,1.66-3.5h9.94c.91,0,1.66,1.57,1.66,3.5S106.68,83,105.76,83Zm-9.94-6.36c-.75,0-1.36,1.28-1.36,2.86s.61,2.86,1.36,2.86h9.94c.75,0,1.36-1.28,1.36-2.86s-.61-2.86-1.36-2.86Z"/><rect class="cls-1" x="108.89" y="76.32" width="12.95" height="6.36" rx="3.18" ry="3.18"/><path d="M120.34,83H110.4c-.91,0-1.66-1.57-1.66-3.5s.74-3.5,1.66-3.5h9.94c.91,0,1.66,1.57,1.66,3.5S121.26,83,120.34,83Zm-9.94-6.36c-.75,0-1.36,1.28-1.36,2.86s.61,2.86,1.36,2.86h9.94c.75,0,1.36-1.28,1.36-2.86s-.61-2.86-1.36-2.86Z"/></svg>