<svg id="Layer_1" data-name="Layer 1" xmlns="http://www.w3.org/2000/svg" viewBox="0 0 128 60"><defs><style>.cls-1{fill:#fff;}</style></defs><title>mainButtonsPagination-prev</title><polygon class="cls-1" points="33.5 11.3 7.5 30.44 33.5 51.64 33.5 39.23 59.5 39.23 59.5 22.68 35.5 22.68 33.5 11.3"/><path d="M34,52.53,6.9,30.43l27-19.85L36,22.42H60V39.49H34ZM8.1,30.44,33,50.75V39H59v-16H35L33.13,12Z"/><rect class="cls-1" x="65.15" y="21.55" width="12.95" height="3.29" rx="1.65" ry="1.65"/><path d="M76.6,25H66.66a1.82,1.82,0,0,1,0-3.62H76.6a1.82,1.82,0,0,1,0,3.62Zm-9.94-3.29a1.49,1.49,0,0,0,0,3H76.6a1.49,1.49,0,0,0,0-3Z"/><rect class="cls-1" x="79.73" y="21.55" width="12.95" height="3.29" rx="1.65" ry="1.65"/><path d="M91.18,25H81.24a1.82,1.82,0,0,1,0-3.62h9.94a1.82,1.82,0,0,1,0,3.62Zm-9.94-3.29a1.49,1.49,0,0,0,0,3h9.94a1.49,1.49,0,0,0,0-3Z"/><rect class="cls-1" x="94.31" y="21.55" width="12.95" height="3.29" rx="1.65" ry="1.65"/><path d="M105.76,25H95.82a1.82,1.82,0,0,1,0-3.62h9.94a1.82,1.82,0,0,1,0,3.62Zm-9.94-3.29a1.49,1.49,0,0,0,0,3h9.94a1.49,1.49,0,0,0,0-3Z"/><rect class="cls-1" x="108.89" y="21.55" width="12.95" height="3.29" rx="1.65" ry="1.65"/><path d="M120.34,25H110.4a1.82,1.82,0,0,1,0-3.62h9.94a1.82,1.82,0,0,1,0,3.62Zm-9.94-3.29a1.49,1.49,0,0,0,0,3h9.94a1.49,1.49,0,0,0,0-3Z"/><rect class="cls-1" x="65.15" y="26.72" width="12.95" height="3.29" rx="1.65" ry="1.65"/><path d="M76.6,30.18H66.66a1.82,1.82,0,0,1,0-3.62H76.6a1.82,1.82,0,0,1,0,3.62Zm-9.94-3.29a1.49,1.49,0,0,0,0,3H76.6a1.49,1.49,0,0,0,0-3Z"/><rect class="cls-1" x="79.73" y="26.72" width="12.95" height="3.29" rx="1.65" ry="1.65"/><path d="M91.18,30.18H81.24a1.82,1.82,0,0,1,0-3.62h9.94a1.82,1.82,0,0,1,0,3.62Zm-9.94-3.29a1.49,1.49,0,0,0,0,3h9.94a1.49,1.49,0,0,0,0-3Z"/><rect class="cls-1" x="94.31" y="26.72" width="12.95" height="3.29" rx="1.65" ry="1.65"/><path d="M105.76,30.18H95.82a1.82,1.82,0,0,1,0-3.62h9.94a1.82,1.82,0,0,1,0,3.62Zm-9.94-3.29a1.49,1.49,0,0,0,0,3h9.94a1.49,1.49,0,0,0,0-3Z"/><rect class="cls-1" x="108.89" y="26.72" width="12.95" height="3.29" rx="1.65" ry="1.65"/><path d="M120.34,30.18H110.4a1.82,1.82,0,0,1,0-3.62h9.94a1.82,1.82,0,0,1,0,3.62Zm-9.94-3.29a1.49,1.49,0,0,0,0,3h9.94a1.49,1.49,0,0,0,0-3Z"/><rect class="cls-1" x="65.15" y="31.89" width="12.95" height="3.29" rx="1.65" ry="1.65"/><path d="M76.6,35.35H66.66a1.82,1.82,0,0,1,0-3.62H76.6a1.82,1.82,0,0,1,0,3.62Zm-9.94-3.29a1.49,1.49,0,0,0,0,3H76.6a1.49,1.49,0,0,0,0-3Z"/><rect class="cls-1" x="79.73" y="31.89" width="12.95" height="3.29" rx="1.65" ry="1.65"/><path d="M91.18,35.35H81.24a1.82,1.82,0,0,1,0-3.62h9.94a1.82,1.82,0,0,1,0,3.62Zm-9.94-3.29a1.49,1.49,0,0,0,0,3h9.94a1.49,1.49,0,0,0,0-3Z"/><rect class="cls-1" x="94.31" y="31.89" width="12.95" height="3.29" rx="1.65" ry="1.65"/><path d="M105.76,35.35H95.82a1.82,1.82,0,0,1,0-3.62h9.94a1.82,1.82,0,0,1,0,3.62Zm-9.94-3.29a1.49,1.49,0,0,0,0,3h9.94a1.49,1.49,0,0,0,0-3Z"/><rect class="cls-1" x="108.89" y="31.89" width="12.95" height="3.29" rx="1.65" ry="1.65"/><path d="M120.34,35.35H110.4a1.82,1.82,0,0,1,0-3.62h9.94a1.82,1.82,0,0,1,0,3.62Zm-9.94-3.29a1.49,1.49,0,0,0,0,3h9.94a1.49,1.49,0,0,0,0-3Z"/><rect class="cls-1" x="65.15" y="37.07" width="12.95" height="3.29" rx="1.65" ry="1.65"/><path d="M76.6,40.52H66.66a1.82,1.82,0,0,1,0-3.62H76.6a1.82,1.82,0,0,1,0,3.62Zm-9.94-3.29a1.49,1.49,0,0,0,0,3H76.6a1.49,1.49,0,0,0,0-3Z"/><rect class="cls-1" x="79.73" y="37.07" width="12.95" height="3.29" rx="1.65" ry="1.65"/><path d="M91.18,40.52H81.24a1.82,1.82,0,0,1,0-3.62h9.94a1.82,1.82,0,0,1,0,3.62Zm-9.94-3.29a1.49,1.49,0,0,0,0,3h9.94a1.49,1.49,0,0,0,0-3Z"/><rect class="cls-1" x="94.31" y="37.07" width="12.95" height="3.29" rx="1.65" ry="1.65"/><path d="M105.76,40.52H95.82a1.82,1.82,0,0,1,0-3.62h9.94a1.82,1.82,0,0,1,0,3.62Zm-9.94-3.29a1.49,1.49,0,0,0,0,3h9.94a1.49,1.49,0,0,0,0-3Z"/><rect class="cls-1" x="108.89" y="37.07" width="12.95" height="3.29" rx="1.65" ry="1.65"/><path d="M120.34,40.52H110.4a1.82,1.82,0,0,1,0-3.62h9.94a1.82,1.82,0,0,1,0,3.62Zm-9.94-3.29a1.49,1.49,0,0,0,0,3h9.94a1.49,1.49,0,0,0,0-3Z"/></svg>