<svg id="Layer_1" data-name="Layer 1" xmlns="http://www.w3.org/2000/svg" viewBox="0 0 128 128"><defs><style>.cls-1{fill:#fff;}</style></defs><title>mainButtonsPagination-next</title><polygon class="cls-1" points="95.45 26.5 121.45 63.5 95.45 104.5 95.45 80.5 69.45 80.5 69.45 48.5 93.45 48.5 95.45 26.5"/><path d="M94.95,106.22l27.1-42.74-27-38.39L93,48h-24V81h26Zm25.9-42.71-24.9,39.26V80h-26V49h24l1.92-21.1Z"/><rect class="cls-1" x="7.15" y="47.32" width="12.95" height="6.36" rx="3.18" ry="3.18"/><path d="M18.6,54H8.66C7.74,54,7,52.43,7,50.5S7.74,47,8.66,47H18.6c.91,0,1.66,1.57,1.66,3.5S19.51,54,18.6,54ZM8.66,47.64c-.75,0-1.36,1.28-1.36,2.86s.61,2.86,1.36,2.86H18.6c.75,0,1.36-1.28,1.36-2.86s-.61-2.86-1.36-2.86Z"/><rect class="cls-1" x="21.73" y="47.32" width="12.95" height="6.36" rx="3.18" ry="3.18"/><path d="M33.18,54H23.24c-.91,0-1.66-1.57-1.66-3.5s.74-3.5,1.66-3.5h9.94c.91,0,1.66,1.57,1.66,3.5S34.09,54,33.18,54Zm-9.94-6.36c-.75,0-1.36,1.28-1.36,2.86s.61,2.86,1.36,2.86h9.94c.75,0,1.36-1.28,1.36-2.86s-.61-2.86-1.36-2.86Z"/><rect class="cls-1" x="36.31" y="47.32" width="12.95" height="6.36" rx="3.18" ry="3.18"/><path d="M47.76,54H37.82c-.91,0-1.66-1.57-1.66-3.5s.74-3.5,1.66-3.5h9.94c.91,0,1.66,1.57,1.66,3.5S48.68,54,47.76,54Zm-9.94-6.36c-.75,0-1.36,1.28-1.36,2.86s.61,2.86,1.36,2.86h9.94c.75,0,1.36-1.28,1.36-2.86s-.61-2.86-1.36-2.86Z"/><rect class="cls-1" x="50.89" y="47.32" width="12.95" height="6.36" rx="3.18" ry="3.18"/><path d="M62.34,54H52.4c-.91,0-1.66-1.57-1.66-3.5S51.49,47,52.4,47h9.94c.91,0,1.66,1.57,1.66,3.5S63.26,54,62.34,54ZM52.4,47.64c-.75,0-1.36,1.28-1.36,2.86s.61,2.86,1.36,2.86h9.94c.75,0,1.36-1.28,1.36-2.86s-.61-2.86-1.36-2.86Z"/><rect class="cls-1" x="7.15" y="57.32" width="12.95" height="6.36" rx="3.18" ry="3.18"/><path d="M18.6,64H8.66C7.74,64,7,62.43,7,60.5S7.74,57,8.66,57H18.6c.91,0,1.66,1.57,1.66,3.5S19.51,64,18.6,64ZM8.66,57.64c-.75,0-1.36,1.28-1.36,2.86s.61,2.86,1.36,2.86H18.6c.75,0,1.36-1.28,1.36-2.86s-.61-2.86-1.36-2.86Z"/><rect class="cls-1" x="21.73" y="57.32" width="12.95" height="6.36" rx="3.18" ry="3.18"/><path d="M33.18,64H23.24c-.91,0-1.66-1.57-1.66-3.5s.74-3.5,1.66-3.5h9.94c.91,0,1.66,1.57,1.66,3.5S34.09,64,33.18,64Zm-9.94-6.36c-.75,0-1.36,1.28-1.36,2.86s.61,2.86,1.36,2.86h9.94c.75,0,1.36-1.28,1.36-2.86s-.61-2.86-1.36-2.86Z"/><rect class="cls-1" x="36.31" y="57.32" width="12.95" height="6.36" rx="3.18" ry="3.18"/><path d="M47.76,64H37.82c-.91,0-1.66-1.57-1.66-3.5s.74-3.5,1.66-3.5h9.94c.91,0,1.66,1.57,1.66,3.5S48.68,64,47.76,64Zm-9.94-6.36c-.75,0-1.36,1.28-1.36,2.86s.61,2.86,1.36,2.86h9.94c.75,0,1.36-1.28,1.36-2.86s-.61-2.86-1.36-2.86Z"/><rect class="cls-1" x="50.89" y="57.32" width="12.95" height="6.36" rx="3.18" ry="3.18"/><path d="M62.34,64H52.4c-.91,0-1.66-1.57-1.66-3.5S51.49,57,52.4,57h9.94c.91,0,1.66,1.57,1.66,3.5S63.26,64,62.34,64ZM52.4,57.64c-.75,0-1.36,1.28-1.36,2.86s.61,2.86,1.36,2.86h9.94c.75,0,1.36-1.28,1.36-2.86s-.61-2.86-1.36-2.86Z"/><rect class="cls-1" x="7.15" y="67.32" width="12.95" height="6.36" rx="3.18" ry="3.18"/><path d="M18.6,74H8.66C7.74,74,7,72.43,7,70.5S7.74,67,8.66,67H18.6c.91,0,1.66,1.57,1.66,3.5S19.51,74,18.6,74ZM8.66,67.64c-.75,0-1.36,1.28-1.36,2.86s.61,2.86,1.36,2.86H18.6c.75,0,1.36-1.28,1.36-2.86s-.61-2.86-1.36-2.86Z"/><rect class="cls-1" x="21.73" y="67.32" width="12.95" height="6.36" rx="3.18" ry="3.18"/><path d="M33.18,74H23.24c-.91,0-1.66-1.57-1.66-3.5s.74-3.5,1.66-3.5h9.94c.91,0,1.66,1.57,1.66,3.5S34.09,74,33.18,74Zm-9.94-6.36c-.75,0-1.36,1.28-1.36,2.86s.61,2.86,1.36,2.86h9.94c.75,0,1.36-1.28,1.36-2.86s-.61-2.86-1.36-2.86Z"/><rect class="cls-1" x="36.31" y="67.32" width="12.95" height="6.36" rx="3.18" ry="3.18"/><path d="M47.76,74H37.82c-.91,0-1.66-1.57-1.66-3.5s.74-3.5,1.66-3.5h9.94c.91,0,1.66,1.57,1.66,3.5S48.68,74,47.76,74Zm-9.94-6.36c-.75,0-1.36,1.28-1.36,2.86s.61,2.86,1.36,2.86h9.94c.75,0,1.36-1.28,1.36-2.86s-.61-2.86-1.36-2.86Z"/><rect class="cls-1" x="50.89" y="67.32" width="12.95" height="6.36" rx="3.18" ry="3.18"/><path d="M62.34,74H52.4c-.91,0-1.66-1.57-1.66-3.5S51.49,67,52.4,67h9.94c.91,0,1.66,1.57,1.66,3.5S63.26,74,62.34,74ZM52.4,67.64c-.75,0-1.36,1.28-1.36,2.86s.61,2.86,1.36,2.86h9.94c.75,0,1.36-1.28,1.36-2.86s-.61-2.86-1.36-2.86Z"/><rect class="cls-1" x="7.15" y="77.32" width="12.95" height="6.36" rx="3.18" ry="3.18"/><path d="M18.6,84H8.66C7.74,84,7,82.43,7,80.5S7.74,77,8.66,77H18.6c.91,0,1.66,1.57,1.66,3.5S19.51,84,18.6,84ZM8.66,77.64c-.75,0-1.36,1.28-1.36,2.86s.61,2.86,1.36,2.86H18.6c.75,0,1.36-1.28,1.36-2.86s-.61-2.86-1.36-2.86Z"/><rect class="cls-1" x="21.73" y="77.32" width="12.95" height="6.36" rx="3.18" ry="3.18"/><path d="M33.18,84H23.24c-.91,0-1.66-1.57-1.66-3.5s.74-3.5,1.66-3.5h9.94c.91,0,1.66,1.57,1.66,3.5S34.09,84,33.18,84Zm-9.94-6.36c-.75,0-1.36,1.28-1.36,2.86s.61,2.86,1.36,2.86h9.94c.75,0,1.36-1.28,1.36-2.86s-.61-2.86-1.36-2.86Z"/><rect class="cls-1" x="36.31" y="77.32" width="12.95" height="6.36" rx="3.18" ry="3.18"/><path d="M47.76,84H37.82c-.91,0-1.66-1.57-1.66-3.5s.74-3.5,1.66-3.5h9.94c.91,0,1.66,1.57,1.66,3.5S48.68,84,47.76,84Zm-9.94-6.36c-.75,0-1.36,1.28-1.36,2.86s.61,2.86,1.36,2.86h9.94c.75,0,1.36-1.28,1.36-2.86s-.61-2.86-1.36-2.86Z"/><rect class="cls-1" x="50.89" y="77.32" width="12.95" height="6.36" rx="3.18" ry="3.18"/><path d="M62.34,84H52.4c-.91,0-1.66-1.57-1.66-3.5S51.49,77,52.4,77h9.94c.91,0,1.66,1.57,1.66,3.5S63.26,84,62.34,84ZM52.4,77.64c-.75,0-1.36,1.28-1.36,2.86s.61,2.86,1.36,2.86h9.94c.75,0,1.36-1.28,1.36-2.86s-.61-2.86-1.36-2.86Z"/></svg>