<svg id="Layer_1" data-name="Layer 1" xmlns="http://www.w3.org/2000/svg" viewBox="0 0 128 60"><defs><style>.cls-1{fill:#fff;}</style></defs><title>mainContentPagination-next</title><polygon class="cls-1" points="95.45 10.54 121.45 30.39 95.45 52.4 95.45 39.52 69.45 39.52 69.45 22.34 93.45 22.34 95.45 10.54"/><path d="M94.95,53.32l27.1-22.93-27-20.6L93,22.08h-24V39.78h26Zm25.9-22.92L95.95,51.47V39.25h-26V22.61h24l1.92-11.32Z"/><rect class="cls-1" x="20.45" y="15.37" width="43" height="5.37" rx="2.68" ry="2.68" transform="translate(83.9 36.1) rotate(180)"/><path d="M25.45,21h33c3,0,5.5-1.32,5.5-3s-2.47-3-5.5-3h-33c-3,0-5.5,1.32-5.5,3S22.42,21,25.45,21Zm33-5.37c2.48,0,4.5,1.08,4.5,2.41s-2,2.41-4.5,2.41h-33c-2.48,0-4.5-1.08-4.5-2.41s2-2.41,4.5-2.41Z"/><rect class="cls-1" x="13.45" y="24.49" width="50" height="3.76" rx="1.88" ry="1.88" transform="translate(76.9 52.74) rotate(-180)"/><path d="M16.95,28.52h43c2.21,0,4-1,4-2.15s-1.79-2.15-4-2.15h-43c-2.21,0-4,1-4,2.15S14.74,28.52,16.95,28.52Zm43-3.76c1.65,0,3,.72,3,1.61S61.6,28,59.95,28h-43c-1.65,0-3-.72-3-1.61s1.35-1.61,3-1.61Z"/><rect class="cls-1" x="33.45" y="31.47" width="27" height="5.37" rx="2.68" ry="2.68" transform="translate(93.9 68.3) rotate(180)"/><path d="M38.45,37.1h17c3,0,5.5-1.32,5.5-3s-2.47-3-5.5-3h-17c-3,0-5.5,1.32-5.5,3S35.42,37.1,38.45,37.1Zm17-5.37c2.48,0,4.5,1.08,4.5,2.41s-2,2.41-4.5,2.41h-17c-2.48,0-4.5-1.08-4.5-2.41s2-2.41,4.5-2.41Z"/><rect class="cls-1" x="7.45" y="40.05" width="56" height="2.68" rx="1.34" ry="1.34" transform="translate(70.9 82.79) rotate(180)"/><path d="M9.95,43h51c1.65,0,3-.72,3-1.61s-1.35-1.61-3-1.61h-51c-1.65,0-3,.72-3,1.61S8.3,43,9.95,43Zm51-2.68c1.1,0,2,.48,2,1.07s-.9,1.07-2,1.07h-51c-1.1,0-2-.48-2-1.07s.9-1.07,2-1.07Z"/></svg>