<svg id="Layer_1" data-name="Layer 1" xmlns="http://www.w3.org/2000/svg" viewBox="0 0 128 128"><defs><style>.cls-1{fill:#fff;}</style></defs><title>mainContentPagination-prev</title><polygon class="cls-1" points="33.5 26.5 7.5 63.5 33.5 104.5 33.5 80.5 59.5 80.5 59.5 48.5 35.5 48.5 33.5 26.5"/><path d="M34,106.22,6.9,63.49l27-38.39L36,48H60V81H34ZM8.1,63.51,33,102.78V80H59V49H35L33.13,27.9Z"/><rect class="cls-1" x="65.5" y="35.5" width="43" height="10" rx="5" ry="5"/><path d="M103.5,46h-33a5.5,5.5,0,0,1,0-11h33a5.5,5.5,0,0,1,0,11Zm-33-10a4.5,4.5,0,0,0,0,9h33a4.5,4.5,0,0,0,0-9Z"/><rect class="cls-1" x="65.5" y="52.5" width="50" height="7" rx="3.5" ry="3.5"/><path d="M112,60H69a4,4,0,0,1,0-8h43a4,4,0,0,1,0,8ZM69,53a3,3,0,0,0,0,6h43a3,3,0,0,0,0-6Z"/><rect class="cls-1" x="68.5" y="65.5" width="27" height="10" rx="5" ry="5"/><path d="M90.5,76h-17a5.5,5.5,0,0,1,0-11h17a5.5,5.5,0,0,1,0,11Zm-17-10a4.5,4.5,0,0,0,0,9h17a4.5,4.5,0,0,0,0-9Z"/><rect class="cls-1" x="65.5" y="81.5" width="56" height="5" rx="2.5" ry="2.5"/><path d="M119,87H68a3,3,0,0,1,0-6h51a3,3,0,0,1,0,6ZM68,82a2,2,0,0,0,0,4h51a2,2,0,0,0,0-4Z"/></svg>