<svg id="Layer_1" data-name="Layer 1" xmlns="http://www.w3.org/2000/svg" viewBox="0 0 128 128"><defs><style>.cls-1{fill:#ff6adf;}.cls-2{fill:#fff;}</style></defs><title>menuButton-saveload</title><polygon class="cls-1" points="64 11.01 81.22 45.9 119.71 51.49 91.86 78.64 98.43 116.99 64 98.88 29.57 116.99 36.14 78.64 8.29 51.49 46.78 45.9 64 11.01"/><path class="cls-2" d="M71.64,73.64H56.2v-2.3l6.19-6.22A45.64,45.64,0,0,0,66.11,61a10.42,10.42,0,0,0,1.35-2.38,6.81,6.81,0,0,0,.45-2.49,4,4,0,0,0-1.14-3,4.37,4.37,0,0,0-3.17-1.1,8,8,0,0,0-2.77.48,11.05,11.05,0,0,0-2.92,1.75l-1.41-1.82a10.82,10.82,0,0,1,7.07-2.7,7.47,7.47,0,0,1,5.19,1.69,5.83,5.83,0,0,1,1.88,4.56,8.8,8.8,0,0,1-1.25,4.42A28,28,0,0,1,64.7,66l-5.14,5v.13H71.64Z"/></svg>