<svg id="Layer_1" data-name="Layer 1" xmlns="http://www.w3.org/2000/svg" viewBox="0 0 128 128"><defs><style>.cls-1{fill:#ff6adf;}.cls-2{fill:#fff;}</style></defs><title>menuButton-quicksave</title><polygon class="cls-1" points="64 11.01 81.22 45.9 119.71 51.49 91.86 78.64 98.43 116.99 64 98.88 29.57 116.99 36.14 78.64 8.29 51.49 46.78 45.9 64 11.01"/><path class="cls-2" d="M70.76,55.68a5.35,5.35,0,0,1-1.26,3.68,6.3,6.3,0,0,1-3.57,1.91v.13a6.72,6.72,0,0,1,4.19,1.8A5.3,5.3,0,0,1,71.48,67a6.15,6.15,0,0,1-2.33,5.17A10.59,10.59,0,0,1,62.53,74a19.19,19.19,0,0,1-3.41-.28,11.67,11.67,0,0,1-3-1V70.15a15.39,15.39,0,0,0,6.52,1.54q6.09,0,6.09-4.77,0-4.27-6.71-4.27H59.69v-2.3H62a7.07,7.07,0,0,0,4.36-1.21A4,4,0,0,0,68,55.77a3.32,3.32,0,0,0-1.18-2.7,4.87,4.87,0,0,0-3.21-1,9.89,9.89,0,0,0-2.91.42,13,13,0,0,0-3.12,1.54l-1.35-1.8a11.21,11.21,0,0,1,3.33-1.79,12.12,12.12,0,0,1,4-.65,8.12,8.12,0,0,1,5.32,1.57A5.28,5.28,0,0,1,70.76,55.68Z"/></svg>