<svg id="Layer_1" data-name="Layer 1" xmlns="http://www.w3.org/2000/svg" viewBox="0 0 128 128"><defs><style>.cls-1{fill:#ea2a2a;}.cls-2{fill:#f7f7f7;}</style></defs><title>game</title><polygon class="cls-1" points="64.5 102.68 26.67 122.56 33.9 80.44 3.29 50.61 45.59 44.47 64.5 6.14 83.41 44.47 125.7 50.61 95.1 80.44 102.33 122.56 64.5 102.68"/><path d="M64.5,7.27,82.85,44.45l.23.47.52.08,41,6L94.94,79.9l-.38.37.09.52,7,40.86L65,102.36l-.47-.24-.47.24-36.7,19.29,7-40.86.09-.52-.38-.37L4.37,51l41-6,.52-.08.23-.47L64.5,7.27M64.5,5,45.25,44l-43,6.25L33.36,80.62,26,123.48,64.5,103.24,103,123.48,95.64,80.62l31.14-30.35L83.75,44,64.5,5Z"/><path class="cls-2" d="M38.46,57.21h6.3v8.6a18.25,18.25,0,0,1-3,.71,21,21,0,0,1-3.08.21,7.73,7.73,0,0,1-6-2.3,9.27,9.27,0,0,1-2.11-6.5A8.66,8.66,0,0,1,33,51.46a8.94,8.94,0,0,1,6.55-2.34,12.76,12.76,0,0,1,5.09,1l-1,2.33a9.9,9.9,0,0,0-4.17-1,5.62,5.62,0,0,0-4.34,1.72A6.67,6.67,0,0,0,33.54,58,7,7,0,0,0,35,62.73a5.2,5.2,0,0,0,4.13,1.63A13.58,13.58,0,0,0,42,64V59.61H38.46Z"/><path class="cls-2" d="M56.69,66.5l-.55-1.8H56a5.31,5.31,0,0,1-1.89,1.61,6,6,0,0,1-2.44.43,4.13,4.13,0,0,1-3-1,3.86,3.86,0,0,1-1.07-2.92,3.43,3.43,0,0,1,1.49-3,8.58,8.58,0,0,1,4.54-1.11l2.24-.07v-.69A2.62,2.62,0,0,0,55.35,56a2.37,2.37,0,0,0-1.8-.62,6.22,6.22,0,0,0-1.91.29,14.41,14.41,0,0,0-1.76.69l-.89-2a9.58,9.58,0,0,1,2.31-.84,10.62,10.62,0,0,1,2.37-.29,5.61,5.61,0,0,1,3.73,1.08,4.22,4.22,0,0,1,1.26,3.39V66.5Zm-4.1-1.87A3.41,3.41,0,0,0,55,63.79a3,3,0,0,0,.91-2.35V60.31l-1.66.07a5.69,5.69,0,0,0-2.83.65,2,2,0,0,0-.88,1.78A1.73,1.73,0,0,0,51,64.15,2.22,2.22,0,0,0,52.59,64.63Z"/><path class="cls-2" d="M73.43,66.5H70.66v-8a3.62,3.62,0,0,0-.56-2.22,2.08,2.08,0,0,0-1.76-.73,2.68,2.68,0,0,0-2.34,1A6.08,6.08,0,0,0,65.26,60V66.5H62.51v-13h2.16l.39,1.7h.14a3.59,3.59,0,0,1,1.56-1.43A5,5,0,0,1,69,53.3q3,0,4,2h.19a4,4,0,0,1,1.62-1.5,5.13,5.13,0,0,1,2.39-.54,4.35,4.35,0,0,1,3.38,1.17,5.19,5.19,0,0,1,1.06,3.57V66.5H78.85v-8a3.6,3.6,0,0,0-.57-2.22,2.09,2.09,0,0,0-1.76-.73,2.73,2.73,0,0,0-2.35,1,5.16,5.16,0,0,0-.74,3.08Z"/><path class="cls-2" d="M91.11,66.73A6.27,6.27,0,0,1,86.38,65a6.7,6.7,0,0,1-1.71-4.86,7.35,7.35,0,0,1,1.58-5,5.46,5.46,0,0,1,4.35-1.82,5.34,5.34,0,0,1,4.05,1.56,6,6,0,0,1,1.49,4.29v1.49H87.51a4.26,4.26,0,0,0,1,2.9,3.55,3.55,0,0,0,2.71,1,10,10,0,0,0,2.14-.22,11.21,11.21,0,0,0,2.13-.72v2.24a8.46,8.46,0,0,1-2,.68A12.5,12.5,0,0,1,91.11,66.73Zm-.5-11.34a2.77,2.77,0,0,0-2.1.83,4,4,0,0,0-.94,2.43h5.88a3.59,3.59,0,0,0-.77-2.43A2.65,2.65,0,0,0,90.61,55.39Z"/></svg>