<svg id="Layer_1" data-name="Layer 1" xmlns="http://www.w3.org/2000/svg" viewBox="0 0 128 60"><defs><style>.cls-1{fill:#fff;}</style></defs><title>mainButtonsPagination-next</title><polygon class="cls-1" points="95.45 11.55 121.45 30.51 95.45 51.52 95.45 39.22 69.45 39.22 69.45 22.83 93.45 22.83 95.45 11.55"/><path d="M94.95,52.4l27.1-21.9-27-19.67L93,22.57h-24V39.48h26Zm25.9-21.88L95.95,50.64V39h-26V23.08h24l1.92-10.81Z"/><rect class="cls-1" x="7.15" y="22.22" width="12.95" height="3.26" rx="1.63" ry="1.63"/><path d="M18.6,25.64H8.66a1.8,1.8,0,0,1,0-3.59H18.6a1.8,1.8,0,0,1,0,3.59ZM8.66,22.38a1.47,1.47,0,0,0,0,2.93H18.6a1.47,1.47,0,0,0,0-2.93Z"/><rect class="cls-1" x="21.73" y="22.22" width="12.95" height="3.26" rx="1.63" ry="1.63"/><path d="M33.18,25.64H23.24a1.8,1.8,0,0,1,0-3.59h9.94a1.8,1.8,0,0,1,0,3.59Zm-9.94-3.26a1.47,1.47,0,0,0,0,2.93h9.94a1.47,1.47,0,0,0,0-2.93Z"/><rect class="cls-1" x="36.31" y="22.22" width="12.95" height="3.26" rx="1.63" ry="1.63"/><path d="M47.76,25.64H37.82a1.8,1.8,0,0,1,0-3.59h9.94a1.8,1.8,0,0,1,0,3.59Zm-9.94-3.26a1.47,1.47,0,0,0,0,2.93h9.94a1.47,1.47,0,0,0,0-2.93Z"/><rect class="cls-1" x="50.89" y="22.22" width="12.95" height="3.26" rx="1.63" ry="1.63"/><path d="M62.34,25.64H52.4a1.8,1.8,0,0,1,0-3.59h9.94a1.8,1.8,0,0,1,0,3.59ZM52.4,22.38a1.47,1.47,0,0,0,0,2.93h9.94a1.47,1.47,0,0,0,0-2.93Z"/><rect class="cls-1" x="7.15" y="27.34" width="12.95" height="3.26" rx="1.63" ry="1.63"/><path d="M18.6,30.77H8.66a1.8,1.8,0,0,1,0-3.59H18.6a1.8,1.8,0,0,1,0,3.59ZM8.66,27.51a1.47,1.47,0,0,0,0,2.93H18.6a1.47,1.47,0,0,0,0-2.93Z"/><rect class="cls-1" x="21.73" y="27.34" width="12.95" height="3.26" rx="1.63" ry="1.63"/><path d="M33.18,30.77H23.24a1.8,1.8,0,0,1,0-3.59h9.94a1.8,1.8,0,0,1,0,3.59Zm-9.94-3.26a1.47,1.47,0,0,0,0,2.93h9.94a1.47,1.47,0,0,0,0-2.93Z"/><rect class="cls-1" x="36.31" y="27.34" width="12.95" height="3.26" rx="1.63" ry="1.63"/><path d="M47.76,30.77H37.82a1.8,1.8,0,0,1,0-3.59h9.94a1.8,1.8,0,0,1,0,3.59Zm-9.94-3.26a1.47,1.47,0,0,0,0,2.93h9.94a1.47,1.47,0,0,0,0-2.93Z"/><rect class="cls-1" x="50.89" y="27.34" width="12.95" height="3.26" rx="1.63" ry="1.63"/><path d="M62.34,30.77H52.4a1.8,1.8,0,0,1,0-3.59h9.94a1.8,1.8,0,0,1,0,3.59ZM52.4,27.51a1.47,1.47,0,0,0,0,2.93h9.94a1.47,1.47,0,0,0,0-2.93Z"/><rect class="cls-1" x="7.15" y="32.47" width="12.95" height="3.26" rx="1.63" ry="1.63"/><path d="M18.6,35.89H8.66a1.8,1.8,0,0,1,0-3.59H18.6a1.8,1.8,0,0,1,0,3.59ZM8.66,32.63a1.47,1.47,0,0,0,0,2.93H18.6a1.47,1.47,0,0,0,0-2.93Z"/><rect class="cls-1" x="21.73" y="32.47" width="12.95" height="3.26" rx="1.63" ry="1.63"/><path d="M33.18,35.89H23.24a1.8,1.8,0,0,1,0-3.59h9.94a1.8,1.8,0,0,1,0,3.59Zm-9.94-3.26a1.47,1.47,0,0,0,0,2.93h9.94a1.47,1.47,0,0,0,0-2.93Z"/><rect class="cls-1" x="36.31" y="32.47" width="12.95" height="3.26" rx="1.63" ry="1.63"/><path d="M47.76,35.89H37.82a1.8,1.8,0,0,1,0-3.59h9.94a1.8,1.8,0,0,1,0,3.59Zm-9.94-3.26a1.47,1.47,0,0,0,0,2.93h9.94a1.47,1.47,0,0,0,0-2.93Z"/><rect class="cls-1" x="50.89" y="32.47" width="12.95" height="3.26" rx="1.63" ry="1.63"/><path d="M62.34,35.89H52.4a1.8,1.8,0,0,1,0-3.59h9.94a1.8,1.8,0,0,1,0,3.59ZM52.4,32.63a1.47,1.47,0,0,0,0,2.93h9.94a1.47,1.47,0,0,0,0-2.93Z"/><rect class="cls-1" x="7.15" y="37.59" width="12.95" height="3.26" rx="1.63" ry="1.63"/><path d="M18.6,41H8.66a1.8,1.8,0,0,1,0-3.59H18.6a1.8,1.8,0,0,1,0,3.59ZM8.66,37.75a1.47,1.47,0,0,0,0,2.93H18.6a1.47,1.47,0,0,0,0-2.93Z"/><rect class="cls-1" x="21.73" y="37.59" width="12.95" height="3.26" rx="1.63" ry="1.63"/><path d="M33.18,41H23.24a1.8,1.8,0,0,1,0-3.59h9.94a1.8,1.8,0,0,1,0,3.59Zm-9.94-3.26a1.47,1.47,0,0,0,0,2.93h9.94a1.47,1.47,0,0,0,0-2.93Z"/><rect class="cls-1" x="36.31" y="37.59" width="12.95" height="3.26" rx="1.63" ry="1.63"/><path d="M47.76,41H37.82a1.8,1.8,0,0,1,0-3.59h9.94a1.8,1.8,0,0,1,0,3.59Zm-9.94-3.26a1.47,1.47,0,0,0,0,2.93h9.94a1.47,1.47,0,0,0,0-2.93Z"/><rect class="cls-1" x="50.89" y="37.59" width="12.95" height="3.26" rx="1.63" ry="1.63"/><path d="M62.34,41H52.4a1.8,1.8,0,0,1,0-3.59h9.94a1.8,1.8,0,0,1,0,3.59ZM52.4,37.75a1.47,1.47,0,0,0,0,2.93h9.94a1.47,1.47,0,0,0,0-2.93Z"/></svg>