<svg id="Layer_1" data-name="Layer 1" xmlns="http://www.w3.org/2000/svg" viewBox="0 0 128 60"><defs><style>.cls-1{fill:#fff;}</style></defs><title>mainContentPagination-prev</title><polygon class="cls-1" points="33.5 9.75 7.5 29.61 33.5 51.61 33.5 38.73 59.5 38.73 59.5 21.56 35.5 21.56 33.5 9.75"/><path d="M34,52.53,6.9,29.6,33.87,9,36,21.29H60V39H34ZM8.1,29.61,33,50.68V38.46H59V21.83H35L33.13,10.51Z"/><rect class="cls-1" x="65.5" y="14.58" width="43" height="5.37" rx="2.68" ry="2.68"/><path d="M103.5,20.22h-33c-3,0-5.5-1.32-5.5-3s2.47-3,5.5-3h33c3,0,5.5,1.32,5.5,3S106.53,20.22,103.5,20.22Zm-33-5.37c-2.48,0-4.5,1.08-4.5,2.41s2,2.41,4.5,2.41h33c2.48,0,4.5-1.08,4.5-2.41s-2-2.41-4.5-2.41Z"/><rect class="cls-1" x="65.5" y="23.7" width="50" height="3.76" rx="1.88" ry="1.88"/><path d="M112,27.73H69c-2.21,0-4-1-4-2.15s1.79-2.15,4-2.15h43c2.21,0,4,1,4,2.15S114.21,27.73,112,27.73ZM69,24c-1.65,0-3,.72-3,1.61s1.35,1.61,3,1.61h43c1.65,0,3-.72,3-1.61S113.65,24,112,24Z"/><rect class="cls-1" x="68.5" y="30.68" width="27" height="5.37" rx="2.68" ry="2.68"/><path d="M90.5,36.31h-17c-3,0-5.5-1.32-5.5-3s2.47-3,5.5-3h17c3,0,5.5,1.32,5.5,3S93.53,36.31,90.5,36.31Zm-17-5.37C71,30.95,69,32,69,33.36s2,2.41,4.5,2.41h17c2.48,0,4.5-1.08,4.5-2.41s-2-2.41-4.5-2.41Z"/><rect class="cls-1" x="65.5" y="39.27" width="56" height="2.68" rx="1.34" ry="1.34"/><path d="M119,42.22H68c-1.65,0-3-.72-3-1.61S66.35,39,68,39h51c1.65,0,3,.72,3,1.61S120.65,42.22,119,42.22ZM68,39.53c-1.1,0-2,.48-2,1.07s.9,1.07,2,1.07h51c1.1,0,2-.48,2-1.07s-.9-1.07-2-1.07Z"/></svg>