<svg id="Layer_1" data-name="Layer 1" xmlns="http://www.w3.org/2000/svg" viewBox="0 0 128 128"><defs><style>.cls-1{fill:#ff6adf;}.cls-2{fill:#fff;}</style></defs><title>menuButton-levelup</title><polygon class="cls-1" points="64 11.01 81.22 45.9 119.71 51.49 91.86 78.64 98.43 116.99 64 98.88 29.57 116.99 36.14 78.64 8.29 51.49 46.78 45.9 64 11.01"/><path class="cls-2" d="M56.47,63.6q0-6.93,2.69-10.36t8-3.43a10.61,10.61,0,0,1,2.86.3v2.3a9.15,9.15,0,0,0-2.83-.4,7.14,7.14,0,0,0-5.77,2.35q-2,2.35-2.18,7.4h.19A6.16,6.16,0,0,1,65,59a6.57,6.57,0,0,1,5,1.91A7.21,7.21,0,0,1,71.8,66.1a8,8,0,0,1-2,5.76A7.12,7.12,0,0,1,64.39,74a7,7,0,0,1-5.79-2.74Q56.47,68.48,56.47,63.6Zm7.89,8.1a4.46,4.46,0,0,0,3.54-1.44,6.12,6.12,0,0,0,1.26-4.15A5.36,5.36,0,0,0,68,62.44a4.42,4.42,0,0,0-3.5-1.33,5.91,5.91,0,0,0-2.65.59,4.9,4.9,0,0,0-1.92,1.64,3.79,3.79,0,0,0-.71,2.17,7.42,7.42,0,0,0,.64,3.08,5.43,5.43,0,0,0,1.82,2.27A4.55,4.55,0,0,0,64.36,71.7Z"/></svg>