<svg id="Layer_1" data-name="Layer 1" xmlns="http://www.w3.org/2000/svg" viewBox="0 0 128 128"><defs><style>.cls-1{fill:#04007f;}.cls-2{fill:#fff;}</style></defs><title>menuButton-profile</title><polygon class="cls-1" points="64 11.01 81.22 45.9 119.71 51.49 91.86 78.64 98.43 116.99 64 98.88 29.57 116.99 36.14 78.64 8.29 51.49 46.78 45.9 64 11.01"/><path class="cls-2" d="M72.22,57a6.58,6.58,0,0,1-2.44,5.49q-2.43,1.92-7,1.92H60.06v9.24H57.32V50.15h6.09Q72.22,50.15,72.22,57ZM60.06,62.06h2.46q3.63,0,5.25-1.17a4.32,4.32,0,0,0,1.62-3.76,4.05,4.05,0,0,0-1.53-3.47,8,8,0,0,0-4.75-1.14H60.06Z"/></svg>