<svg id="Layer_1" data-name="Layer 1" xmlns="http://www.w3.org/2000/svg" viewBox="0 0 128 128"><defs><style>.cls-1{fill:#ff6adf;}.cls-2{fill:#fff;}</style></defs><title>menuButton-perks</title><polygon class="cls-1" points="64 11.01 81.22 45.9 119.71 51.49 91.86 78.64 98.43 116.99 64 98.88 29.57 116.99 36.14 78.64 8.29 51.49 46.78 45.9 64 11.01"/><path class="cls-2" d="M63.54,59.29a8.64,8.64,0,0,1,5.84,1.84,6.31,6.31,0,0,1,2.13,5,7.28,7.28,0,0,1-2.32,5.72A9.27,9.27,0,0,1,62.79,74a11.77,11.77,0,0,1-6.06-1.27V70.12a9.21,9.21,0,0,0,2.79,1.13,13.77,13.77,0,0,0,3.29.41,6.57,6.57,0,0,0,4.39-1.33,4.78,4.78,0,0,0,1.57-3.86q0-4.92-6-4.92a24,24,0,0,0-4.08.47l-1.38-.88.88-11H69.86v2.46h-9.4l-.59,7.05A18.72,18.72,0,0,1,63.54,59.29Z"/></svg>