<svg id="Layer_1" data-name="Layer 1" xmlns="http://www.w3.org/2000/svg" viewBox="0 0 128 128"><defs><style>.cls-1{fill:#5e40dd;}.cls-2{fill:#f7f7f7;}</style></defs><title>state-editor</title><rect class="cls-1" x="23.5" y="10.5" width="81" height="107"/><path d="M104,11V117H24V11h80m1-1H23V118h82V10Z"/><path class="cls-2" d="M34.92,85.73A6.27,6.27,0,0,1,30.19,84a6.7,6.7,0,0,1-1.71-4.86,7.35,7.35,0,0,1,1.58-5,5.46,5.46,0,0,1,4.35-1.82,5.34,5.34,0,0,1,4.05,1.56A6,6,0,0,1,40,78.15v1.49H31.32a4.26,4.26,0,0,0,1,2.9,3.55,3.55,0,0,0,2.71,1,10,10,0,0,0,2.14-.22,11.21,11.21,0,0,0,2.13-.72v2.24a8.46,8.46,0,0,1-2,.68A12.5,12.5,0,0,1,34.92,85.73Zm-.5-11.34a2.77,2.77,0,0,0-2.1.83,4,4,0,0,0-.94,2.43h5.88a3.59,3.59,0,0,0-.77-2.43A2.65,2.65,0,0,0,34.42,74.39Z"/><path class="cls-2" d="M47.46,85.73A4.51,4.51,0,0,1,43.68,84,7.9,7.9,0,0,1,42.32,79a7.93,7.93,0,0,1,1.38-5,4.56,4.56,0,0,1,3.81-1.78,4.47,4.47,0,0,1,3.89,1.89h.14a16.51,16.51,0,0,1-.2-2.2V67.27h2.77V85.5H51.95l-.48-1.7h-.13A4.4,4.4,0,0,1,47.46,85.73Zm.74-2.23a3,3,0,0,0,2.47-1,5,5,0,0,0,.8-3.1v-.39a5.81,5.81,0,0,0-.8-3.48,3,3,0,0,0-2.5-1,2.53,2.53,0,0,0-2.24,1.18,6,6,0,0,0-.79,3.36,5.88,5.88,0,0,0,.76,3.29A2.57,2.57,0,0,0,48.2,83.51Z"/><path class="cls-2" d="M57.88,69.11a1.52,1.52,0,0,1,.4-1.14,1.58,1.58,0,0,1,1.15-.4,1.54,1.54,0,0,1,1.13.4,1.52,1.52,0,0,1,.4,1.14,1.5,1.5,0,0,1-.4,1.11,1.53,1.53,0,0,1-1.13.4,1.56,1.56,0,0,1-1.15-.4A1.5,1.5,0,0,1,57.88,69.11ZM60.8,85.5H58v-13H60.8Z"/><path class="cls-2" d="M69.56,83.51a6.7,6.7,0,0,0,2-.32v2.07a5.56,5.56,0,0,1-1.18.33,8.11,8.11,0,0,1-1.49.13Q65,85.73,65,81.61v-7H63.22V73.41l1.9-1,.94-2.74h1.7v2.88h3.69v2.09H67.76v6.94a2,2,0,0,0,.5,1.47A1.82,1.82,0,0,0,69.56,83.51Z"/><path class="cls-2" d="M85.66,79A7.07,7.07,0,0,1,84,84a5.84,5.84,0,0,1-4.54,1.78,6.21,6.21,0,0,1-3.21-.82,5.42,5.42,0,0,1-2.14-2.36A8,8,0,0,1,73.39,79,7,7,0,0,1,75,74.07a5.86,5.86,0,0,1,4.56-1.77A5.71,5.71,0,0,1,84,74.12,7,7,0,0,1,85.66,79Zm-9.43,0q0,4.49,3.32,4.49T82.83,79q0-4.44-3.3-4.44A2.82,2.82,0,0,0,77,75.7,5.84,5.84,0,0,0,76.23,79Z"/><path class="cls-2" d="M95.4,72.3a6.63,6.63,0,0,1,1.37.12L96.5,75a5.2,5.2,0,0,0-1.22-.14,3.53,3.53,0,0,0-2.68,1.08,3.9,3.9,0,0,0-1,2.8V85.5H88.83v-13H91l.36,2.29h.14A5.14,5.14,0,0,1,93.17,73,4,4,0,0,1,95.4,72.3Z"/><path class="cls-2" d="M45.78,37.81a3.39,3.39,0,0,1-1.38,2.91,6.62,6.62,0,0,1-4,1,9.36,9.36,0,0,1-4.16-.79V38.57a10.21,10.21,0,0,0,4.25,1.05q2.54,0,2.54-1.54a1.22,1.22,0,0,0-.28-.82,3.33,3.33,0,0,0-.93-.68,15.93,15.93,0,0,0-1.79-.8,8.29,8.29,0,0,1-3-1.73,3.21,3.21,0,0,1-.79-2.25,3,3,0,0,1,1.34-2.58,6.37,6.37,0,0,1,3.65-.92,10.34,10.34,0,0,1,4.32.93l-.89,2.07a9.62,9.62,0,0,0-3.53-.87Q39,30.44,39,31.68a1.25,1.25,0,0,0,.57,1A12.5,12.5,0,0,0,42,33.87,11.33,11.33,0,0,1,44.35,35a3.4,3.4,0,0,1,1.08,1.19A3.44,3.44,0,0,1,45.78,37.81Z"/><path class="cls-2" d="M53.58,39.51a6.7,6.7,0,0,0,2-.32v2.07a5.56,5.56,0,0,1-1.18.33,8.11,8.11,0,0,1-1.49.13Q49,41.73,49,37.61v-7H47.24V29.41l1.9-1,.94-2.74h1.7v2.88h3.69v2.09H51.78v6.94a2,2,0,0,0,.5,1.47A1.82,1.82,0,0,0,53.58,39.51Z"/><path class="cls-2" d="M66.29,41.5l-.55-1.8h-.09a5.31,5.31,0,0,1-1.89,1.61,6,6,0,0,1-2.44.43,4.13,4.13,0,0,1-3-1,3.86,3.86,0,0,1-1.07-2.92,3.43,3.43,0,0,1,1.49-3,8.58,8.58,0,0,1,4.54-1.11l2.24-.07v-.69A2.62,2.62,0,0,0,65,31a2.37,2.37,0,0,0-1.8-.62,6.22,6.22,0,0,0-1.91.29,14.41,14.41,0,0,0-1.76.69l-.89-2a9.58,9.58,0,0,1,2.31-.84,10.62,10.62,0,0,1,2.37-.29A5.61,5.61,0,0,1,67,29.38a4.22,4.22,0,0,1,1.26,3.39V41.5Zm-4.1-1.87a3.41,3.41,0,0,0,2.41-.84,3,3,0,0,0,.91-2.35V35.31l-1.66.07A5.69,5.69,0,0,0,61,36a2,2,0,0,0-.88,1.78,1.73,1.73,0,0,0,.52,1.34A2.22,2.22,0,0,0,62.19,39.63Z"/><path class="cls-2" d="M76.94,39.51a6.7,6.7,0,0,0,2-.32v2.07a5.56,5.56,0,0,1-1.18.33,8.11,8.11,0,0,1-1.49.13q-3.91,0-3.91-4.12v-7H70.6V29.41l1.9-1,.94-2.74h1.7v2.88h3.69v2.09H75.13v6.94a2,2,0,0,0,.5,1.47A1.82,1.82,0,0,0,76.94,39.51Z"/><path class="cls-2" d="M87.2,41.73A6.27,6.27,0,0,1,82.47,40a6.7,6.7,0,0,1-1.71-4.86,7.35,7.35,0,0,1,1.58-5A5.46,5.46,0,0,1,86.7,28.3a5.34,5.34,0,0,1,4.05,1.56,6,6,0,0,1,1.49,4.29v1.49H83.6a4.26,4.26,0,0,0,1,2.9,3.55,3.55,0,0,0,2.71,1,10,10,0,0,0,2.14-.22,11.21,11.21,0,0,0,2.13-.72v2.24a8.46,8.46,0,0,1-2,.68A12.5,12.5,0,0,1,87.2,41.73Zm-.5-11.34a2.77,2.77,0,0,0-2.1.83,4,4,0,0,0-.94,2.43h5.88a3.59,3.59,0,0,0-.77-2.43A2.65,2.65,0,0,0,86.7,30.39Z"/></svg>